name rise30.2954peak35.7071fall66.7804.mot
datacolumns 19
datarows 27
range 1.80000100000000 1.84333200000000
endheader
time	ground_force1_vx	ground_force1_vy	ground_force1_vz	ground_force1_px	ground_force1_py	ground_force1_pz	ground_force2_vx	ground_force2_vy	ground_force2_vz	ground_force2_px	ground_force2_py	ground_force2_pz	ground_torque1_x	ground_torque1_y	ground_torque1_z	ground_torque2_x	ground_torque2_y	ground_torque2_z	
1.80000100000000	11.92963400000000	713.99795500000005	35.69860800000000	0.19894500000000	0.00000000000000	0.05713300000000	0.00000000000000	0.00000000000000	0.00000000000000	0.00000000000000	0.00000000000000	0.00000000000000	0.00000000000000	12.73433100000000	0.00000000000000	0.00000000000000	0.00000000000000	0.00000000000000	
1.80166700000000	11.70156100000000	714.68394100000000	35.65191100000000	0.19811300000000	0.00000000000000	0.05707300000000	0.00000000000000	0.00000000000000	0.00000000000000	0.00000000000000	0.00000000000000	0.00000000000000	0.00000000000000	12.70875900000000	0.00000000000000	0.00000000000000	0.00000000000000	0.00000000000000	
1.80332800000000	11.46462800000000	715.37352299999998	35.61044700000000	0.19726600000000	0.00000000000000	0.05701500000000	0.00000000000000	0.00000000000000	0.00000000000000	0.00000000000000	0.00000000000000	0.00000000000000	0.00000000000000	12.68593500000000	0.00000000000000	0.00000000000000	0.00000000000000	0.00000000000000	
1.80499400000000	11.21837200000000	716.06696599999998	35.57412100000000	0.19640400000000	0.00000000000000	0.05695800000000	0.00000000000000	0.00000000000000	0.00000000000000	0.00000000000000	0.00000000000000	0.00000000000000	0.00000000000000	12.66585600000000	0.00000000000000	0.00000000000000	0.00000000000000	0.00000000000000	
1.80666200000000	10.96236900000000	716.76463000000001	35.54283300000000	0.19552800000000	0.00000000000000	0.05690200000000	0.00000000000000	0.00000000000000	0.00000000000000	0.00000000000000	0.00000000000000	0.00000000000000	0.00000000000000	12.64851800000000	0.00000000000000	0.00000000000000	0.00000000000000	0.00000000000000	
1.80833600000000	10.69623100000000	717.46696399999996	35.51648000000000	0.19463700000000	0.00000000000000	0.05684700000000	0.00000000000000	0.00000000000000	0.00000000000000	0.00000000000000	0.00000000000000	0.00000000000000	0.00000000000000	12.63391700000000	0.00000000000000	0.00000000000000	0.00000000000000	0.00000000000000	
1.80999800000000	10.41960600000000	718.17450499999995	35.49495400000000	0.19373100000000	0.00000000000000	0.05679400000000	0.00000000000000	0.00000000000000	0.00000000000000	0.00000000000000	0.00000000000000	0.00000000000000	0.00000000000000	12.62204400000000	0.00000000000000	0.00000000000000	0.00000000000000	0.00000000000000	
1.81167600000000	10.13218400000000	718.88787400000001	35.47814400000000	0.19281100000000	0.00000000000000	0.05674100000000	0.00000000000000	0.00000000000000	0.00000000000000	0.00000000000000	0.00000000000000	0.00000000000000	0.00000000000000	12.61288900000000	0.00000000000000	0.00000000000000	0.00000000000000	0.00000000000000	
1.81332900000000	9.83369300000000	719.60776899999996	35.46593700000000	0.19187800000000	0.00000000000000	0.05669000000000	0.00000000000000	0.00000000000000	0.00000000000000	0.00000000000000	0.00000000000000	0.00000000000000	0.00000000000000	12.60643900000000	0.00000000000000	0.00000000000000	0.00000000000000	0.00000000000000	
1.81499400000000	9.52390600000000	720.33496600000001	35.45821700000000	0.19093100000000	0.00000000000000	0.05663900000000	0.00000000000000	0.00000000000000	0.00000000000000	0.00000000000000	0.00000000000000	0.00000000000000	0.00000000000000	12.60268000000000	0.00000000000000	0.00000000000000	0.00000000000000	0.00000000000000	
1.81666000000000	9.20263400000000	721.07030899999995	35.45486700000000	0.18997100000000	0.00000000000000	0.05659000000000	0.00000000000000	0.00000000000000	0.00000000000000	0.00000000000000	0.00000000000000	0.00000000000000	0.00000000000000	12.60159300000000	0.00000000000000	0.00000000000000	0.00000000000000	0.00000000000000	
1.81833600000000	8.86973200000000	721.81470700000000	35.45576800000000	0.18899900000000	0.00000000000000	0.05654100000000	0.00000000000000	0.00000000000000	0.00000000000000	0.00000000000000	0.00000000000000	0.00000000000000	0.00000000000000	12.60315700000000	0.00000000000000	0.00000000000000	0.00000000000000	0.00000000000000	
1.81999300000000	8.52510000000000	722.56912899999998	35.46080100000000	0.18801500000000	0.00000000000000	0.05649300000000	0.00000000000000	0.00000000000000	0.00000000000000	0.00000000000000	0.00000000000000	0.00000000000000	0.00000000000000	12.60734800000000	0.00000000000000	0.00000000000000	0.00000000000000	0.00000000000000	
1.82166100000000	8.16867800000000	723.33459700000003	35.46984800000000	0.18702100000000	0.00000000000000	0.05644600000000	0.00000000000000	0.00000000000000	0.00000000000000	0.00000000000000	0.00000000000000	0.00000000000000	0.00000000000000	12.61413900000000	0.00000000000000	0.00000000000000	0.00000000000000	0.00000000000000	
1.82332900000000	7.80045200000000	724.11218299999996	35.48279100000000	0.18601600000000	0.00000000000000	0.05640000000000	0.00000000000000	0.00000000000000	0.00000000000000	0.00000000000000	0.00000000000000	0.00000000000000	0.00000000000000	12.62349900000000	0.00000000000000	0.00000000000000	0.00000000000000	0.00000000000000	
1.82500000000000	7.42044900000000	724.90299700000003	35.49951000000000	0.18500300000000	0.00000000000000	0.05635400000000	0.00000000000000	0.00000000000000	0.00000000000000	0.00000000000000	0.00000000000000	0.00000000000000	0.00000000000000	12.63539300000000	0.00000000000000	0.00000000000000	0.00000000000000	0.00000000000000	
1.82667400000000	7.02874000000000	725.70818599999996	35.51989300000000	0.18398100000000	0.00000000000000	0.05630900000000	0.00000000000000	0.00000000000000	0.00000000000000	0.00000000000000	0.00000000000000	0.00000000000000	0.00000000000000	12.64978500000000	0.00000000000000	0.00000000000000	0.00000000000000	0.00000000000000	
1.82832900000000	6.62543700000000	726.52892399999996	35.54382600000000	0.18295100000000	0.00000000000000	0.05626400000000	0.00000000000000	0.00000000000000	0.00000000000000	0.00000000000000	0.00000000000000	0.00000000000000	0.00000000000000	12.66663200000000	0.00000000000000	0.00000000000000	0.00000000000000	0.00000000000000	
1.82999700000000	6.21069600000000	727.36640799999998	35.57119900000000	0.18191500000000	0.00000000000000	0.05622000000000	0.00000000000000	0.00000000000000	0.00000000000000	0.00000000000000	0.00000000000000	0.00000000000000	0.00000000000000	12.68589100000000	0.00000000000000	0.00000000000000	0.00000000000000	0.00000000000000	
1.83166500000000	5.78471000000000	728.22184700000003	35.60190700000000	0.18087400000000	0.00000000000000	0.05617700000000	0.00000000000000	0.00000000000000	0.00000000000000	0.00000000000000	0.00000000000000	0.00000000000000	0.00000000000000	12.70751300000000	0.00000000000000	0.00000000000000	0.00000000000000	0.00000000000000	
1.83333300000000	5.34771500000000	729.09645599999999	35.63584900000000	0.17982800000000	0.00000000000000	0.05613300000000	0.00000000000000	0.00000000000000	0.00000000000000	0.00000000000000	0.00000000000000	0.00000000000000	0.00000000000000	12.73144500000000	0.00000000000000	0.00000000000000	0.00000000000000	0.00000000000000	
1.83500000000000	4.89998400000000	729.99145099999998	35.67292800000000	0.17877900000000	0.00000000000000	0.05609000000000	0.00000000000000	0.00000000000000	0.00000000000000	0.00000000000000	0.00000000000000	0.00000000000000	0.00000000000000	12.75763100000000	0.00000000000000	0.00000000000000	0.00000000000000	0.00000000000000	
1.83666200000000	4.44182800000000	730.90803700000004	35.71305400000000	0.17772800000000	0.00000000000000	0.05604700000000	0.00000000000000	0.00000000000000	0.00000000000000	0.00000000000000	0.00000000000000	0.00000000000000	0.00000000000000	12.78601200000000	0.00000000000000	0.00000000000000	0.00000000000000	0.00000000000000	
1.83833400000000	3.97359500000000	731.84740599999998	35.75614200000000	0.17667400000000	0.00000000000000	0.05600500000000	0.00000000000000	0.00000000000000	0.00000000000000	0.00000000000000	0.00000000000000	0.00000000000000	0.00000000000000	12.81652300000000	0.00000000000000	0.00000000000000	0.00000000000000	0.00000000000000	
1.84000100000000	3.49566600000000	732.81072400000005	35.80211600000000	0.17562100000000	0.00000000000000	0.05596200000000	0.00000000000000	0.00000000000000	0.00000000000000	0.00000000000000	0.00000000000000	0.00000000000000	0.00000000000000	12.84909700000000	0.00000000000000	0.00000000000000	0.00000000000000	0.00000000000000	
1.84166800000000	3.00845600000000	733.79912600000000	35.85090600000000	0.17456800000000	0.00000000000000	0.05592000000000	0.00000000000000	0.00000000000000	0.00000000000000	0.00000000000000	0.00000000000000	0.00000000000000	0.00000000000000	12.88366200000000	0.00000000000000	0.00000000000000	0.00000000000000	0.00000000000000	
1.84333200000000	2.51241100000000	734.81370600000002	35.90245100000000	0.17351600000000	0.00000000000000	0.05587800000000	0.00000000000000	0.00000000000000	0.00000000000000	0.00000000000000	0.00000000000000	0.00000000000000	0.00000000000000	12.92014300000000	0.00000000000000	0.00000000000000	0.00000000000000	0.00000000000000	
